<svg width="18" height="18" viewBox="0 0 18 18" fill="none" xmlns="http://www.w3.org/2000/svg">
<path d="M16.6538 4.16239C13.9613 -0.000137598 8.46392 -1.23765 4.20066 1.34987C0.049603 3.93739 -1.29669 9.56244 1.39589 13.725L1.62028 14.0625L0.722748 17.4375L4.08847 16.5375L4.42505 16.7625C5.88353 17.55 7.4542 18 9.02487 18C10.7077 18 12.3906 17.55 13.8491 16.65C18.0001 13.95 19.2342 8.43743 16.6538 4.16239ZM14.2978 12.825C13.8491 13.5 13.2881 13.95 12.5028 14.0625C12.054 14.0625 11.4931 14.2875 9.24925 13.3875C7.34201 12.4875 5.77134 11.0249 4.64943 9.33743C3.97628 8.54993 3.63971 7.53742 3.52752 6.52491C3.52752 5.62491 3.86409 4.8374 4.42505 4.2749C4.64943 4.04989 4.87381 3.93739 5.09819 3.93739H5.65915C5.88353 3.93739 6.10791 3.93739 6.2201 4.3874C6.44448 4.9499 7.00544 6.29991 7.00544 6.41241C7.11763 6.52491 7.11763 6.74991 7.00544 6.86242C7.11763 7.08742 7.00544 7.31242 6.89325 7.42492C6.78105 7.53742 6.66886 7.76242 6.55667 7.87492C6.33229 7.98742 6.2201 8.21243 6.33229 8.43743C6.78105 9.11243 7.34201 9.78744 7.90296 10.3499C8.57611 10.9124 9.24925 11.3624 10.0346 11.7C10.259 11.8125 10.4834 11.8125 10.5955 11.5875C10.7077 11.3624 11.2687 10.7999 11.4931 10.5749C11.7175 10.3499 11.8296 10.3499 12.054 10.4624L13.8491 11.3624C14.0735 11.475 14.2978 11.5875 14.41 11.7C14.5222 12.0375 14.5222 12.4875 14.2978 12.825Z" fill="#01140A"/>
</svg>
