<svg width="104" height="112" viewBox="0 0 104 112" fill="none" xmlns="http://www.w3.org/2000/svg">
<path d="M92.101 95.9037C95.9252 96.5374 101.141 97.8381 101.141 97.8381L96.1189 87.7432C96.1189 87.7432 93.3492 87.182 91.2511 87.0694C89.153 86.9569 87.0787 86.9712 84.1426 87.2192C80.9749 87.4867 78.0386 87.8181 75.1798 88.7165C72.3388 89.6093 71.3937 89.9144 68.9212 91.3368C65.8078 93.128 64.0289 94.8048 61.3492 97.1643C58.2484 99.8945 54.8588 103.603 54.8588 103.603C54.8588 103.603 59.5141 101.234 62.4309 100.021C65.7533 98.6397 67.1172 98.102 70.5438 97.1643C74.3298 96.1282 76.3094 95.7503 80.2021 95.4545C84.1426 95.155 88.1362 95.2466 92.101 95.9037Z" fill="#67B544"/>
<path d="M69.6167 89.2405C65.9004 91.2123 64.1641 92.9055 61.0401 95.679L54.3953 102.192C54.3953 102.192 55.2553 98.818 56.945 96.1282C58.6348 93.4384 59.1085 92.7592 61.0401 90.3635C62.9718 87.9678 65.3383 85.5646 68.5349 82.9517C71.5486 80.4884 73.3774 79.2294 76.8024 77.3368C80.9118 75.066 87.9287 72.6951 87.9287 72.6951L95.6553 85.4972C95.6553 85.4972 86.7139 84.5322 81.1293 85.4972C76.4606 86.3039 73.7762 87.0335 69.6167 89.2405Z" fill="#003D1C"/>
<path d="M18.0801 100.398C24.1346 99.6559 31.2613 99.8955 37.2421 101.071L47.8275 103.542L42.9597 99.1248C40.1009 96.8788 39.251 96.2799 35.8513 94.558C31.986 92.6002 28.931 91.8359 24.6477 91.0393C20.2499 90.2214 17.685 90.0019 13.2123 90.2157C9.33769 90.4009 2.31783 92.0874 2.31783 92.0874L0.54071 104.888C0.54071 104.888 13.2727 100.986 18.0801 100.398Z" fill="#67B544"/>
<path d="M28.2793 89.0159C24.107 87.8789 17.0757 87.6683 17.0757 87.6683C17.0757 87.6683 14.1903 83.4784 13.5215 79.5828C12.9175 76.0642 13.0548 72.5648 13.5215 69.0266C14.3007 63.1195 16.3908 59.3475 18.7756 54.6523C20.5033 51.2508 21.88 49.5517 24.0805 46.417C26.0154 43.6608 27.1692 42.1587 29.2838 39.5293C33.0176 34.8866 39.4829 28.1497 39.4829 28.1497L70.6984 31.294L81.052 49.8609C81.052 49.8609 76.7526 52.8647 74.948 55.5507C72.8709 58.6424 72.1725 63.0372 71.9346 64.5346L71.9346 64.5346C71.2054 69.1241 72.3209 76.4384 72.3209 76.4384C72.3209 76.4384 71.8573 76.5132 69.0758 78.6095C65.9987 80.9284 64.8741 81.9262 62.1991 84.6737C59.4451 87.5023 56.7767 90.6529 55.0906 94.1817C53.159 98.2245 51.7682 104.139 51.7682 104.139C51.7682 104.139 48.0594 100.321 46.0505 98.2993C44.0416 96.2779 41.1828 94.556 37.7058 92.6095C34.2288 90.663 32.4516 90.1529 28.2793 89.0159Z" fill="#9B61B5" fill-opacity="0.9"/>
<path d="M57.1565 22.855C54.44 22.2618 52.6431 21.8943 50.2341 21.8316C48.9019 21.7969 45.4303 21.921 45.4303 21.921C45.4303 21.921 42.2802 22.1678 40.4773 22.8158C38.8929 23.3852 38.0019 23.791 36.5594 24.7531C35.117 25.7152 34.7218 26.1322 33.6302 27.3692C32.7064 28.4162 32.1253 29.0889 31.4193 30.3125C30.7133 31.5361 30.3934 32.2111 30.0134 33.5351C29.4066 35.6497 30.0021 39.1599 30.0021 39.1599C30.0021 39.1599 33.5258 38.4735 35.7721 37.7034C37.6403 37.0629 38.4635 36.8161 40.3255 35.8607C41.7821 35.1133 42.6541 34.5265 43.7672 33.5183C45.3367 32.0968 47.0213 31.0569 47.0213 31.0569C47.0213 31.0569 45.7089 33.8852 45.4422 36.767C45.2664 38.6665 45.5233 40.3009 45.9331 42.1705C46.2687 43.7012 46.9373 45.2167 46.9373 45.2167C46.9373 45.2167 49.8453 44.8175 51.2631 44.4138C52.681 44.0101 53.815 43.6055 55.3025 42.794C56.79 41.9824 57.4263 41.2753 57.9925 40.83C58.5587 40.3846 60.1859 38.7836 60.1859 38.7836C60.1859 38.7836 59.4097 40.2222 58.9904 42.1931C58.5711 44.164 58.7168 45.3206 58.7909 46.2729C58.865 47.2252 59.0102 48.2457 59.7959 49.8123C60.5816 51.3788 62.4321 53.0846 62.4321 53.0846C62.4321 53.0846 65.4604 51.8929 67.3913 50.6515C68.6456 49.845 69.3024 49.2012 70.3631 48.0763C71.4238 46.9514 71.2714 46.855 72.1989 45.2936C73.1264 43.7323 73.6065 41.7616 73.6065 41.7616C73.6065 41.7616 72.7849 45.7657 73.0609 48.4926C73.2598 50.4579 73.4522 51.4859 74.2121 53.3245C74.9643 55.1446 76.2822 57.0712 76.2822 57.0712C76.2822 57.0712 78.8289 54.6987 80.0986 52.3904C81.3683 50.082 81.4918 48.8536 81.5693 46.4783C81.6448 44.1653 81.2805 42.4651 80.6984 40.5591C80.1163 38.6532 79.251 36.7354 78.4101 35.1796C77.5691 33.6239 75.9625 31.6994 74.454 30.2301C72.9455 28.7608 70.713 27.0078 70.713 27.0078C70.713 27.0078 71.6604 25.1208 72.1007 23.8508C72.4495 22.8445 72.7187 22.282 72.8267 21.2254C72.9947 19.5813 72.9425 18.7907 72.6265 17.1637C72.3308 15.6412 71.8909 14.5927 71.2942 13.1705L71.2561 13.0796C70.8749 12.1709 70.0311 10.8622 70.0311 10.8622L68.4958 11.0967C68.4958 11.0967 68.2751 14.0712 67.7559 15.8992C67.2657 17.6255 66.8752 18.5805 65.9911 20.1542C64.9958 21.9257 62.8502 24.3333 62.8502 24.3333C62.8502 24.3333 59.4021 23.3455 57.1565 22.855Z" fill="#003D1C"/>
<ellipse cx="28.5111" cy="70.2245" rx="2.70431" ry="2.69518" fill="#080808"/>
<ellipse cx="56.3269" cy="75.465" rx="2.70431" ry="2.69518" fill="#080808"/>
<path d="M52.2318 107.433C52.2318 107.433 56.8103 104.979 59.8811 103.69C64.3202 101.826 66.9064 100.903 71.6256 99.8716C74.3402 99.2782 75.883 98.9671 78.6568 98.7486C81.3936 98.533 82.7919 98.4499 85.5334 98.5988C87.44 98.7024 88.2738 98.7497 90.1694 98.9732C92.0163 99.1909 93.4466 99.433 95.2689 99.7967C97.0109 100.144 97.9496 100.419 99.6731 100.845C100.638 101.083 102.223 101.593 102.223 101.593L104 105.487C104 105.487 100.632 103.949 98.4368 103.315C95.7506 102.54 94.2462 102.049 91.4829 101.593C88.469 101.097 86.6588 100.868 83.6018 100.845C80.2138 100.819 79.2324 100.852 75.8752 101.294C72.4273 101.748 72.0934 101.793 68.6894 102.492C65.3949 103.169 64.4398 103.39 61.2719 104.364C58.104 105.337 52.2318 107.433 52.2318 107.433C52.2318 107.433 49.4622 106.814 47.5958 106.535C45.3841 106.204 44.0347 105.993 41.8009 105.861C38.9658 105.693 37.3 105.486 34.4606 105.412C31.5046 105.334 29.8418 105.416 26.8886 105.561C23.371 105.735 21.4713 106.015 18.003 106.61C14.7959 107.159 13.0147 107.591 9.89004 108.481C5.94266 109.606 0 112 0 112L0.540862 107.433C0.540862 107.433 6.54957 105.452 10.5082 104.588C12.3671 104.182 13.4172 103.982 15.2987 103.69C18.3848 103.21 20.1355 103.02 23.2571 102.866C26.1199 102.725 27.7367 102.688 30.5973 102.866C33.2678 103.033 34.8284 103.225 37.474 103.615C40.5984 104.075 42.3033 104.317 45.3551 105.112C48.1012 105.828 52.2318 107.433 52.2318 107.433Z" fill="#4A2204"/>
<ellipse cx="29.2064" cy="70.8235" rx="0.617943" ry="0.59893" fill="#F8F8F8"/>
<ellipse cx="57.0221" cy="76.0643" rx="0.617944" ry="0.59893" fill="#F8F8F8"/>
<path d="M46.7504 77.1123C46.7504 77.3369 46.6092 78.4885 46.3354 79.124C46.0616 79.7594 45.661 80.3325 45.1579 80.8082C44.6549 81.2839 44.06 81.6523 43.4095 81.8909C42.7591 82.1294 42.0668 82.2332 41.3749 82.1957C40.683 82.1583 40.006 81.9805 39.3852 81.6732C38.7645 81.3658 38.2129 80.9354 37.7643 80.4082C37.3157 79.881 36.9794 79.2681 36.776 78.6068C36.5726 77.9455 36.5596 76.7607 36.5812 76.5621C36.6028 76.3636 36.851 76.1783 37.0922 76.2139C37.3232 76.248 37.4785 76.4385 37.4754 76.6592C37.4723 76.8798 37.4683 77.7986 37.6359 78.3432C37.8034 78.8878 38.0804 79.3927 38.4498 79.8269C38.8193 80.2611 39.2736 80.6156 39.7849 80.8687C40.2961 81.1218 40.8537 81.2683 41.4236 81.2991C41.9935 81.33 42.5637 81.2445 43.0994 81.048C43.6351 80.8516 44.125 80.5481 44.5393 80.1563C44.9537 79.7645 45.2837 79.2925 45.5092 78.7692C45.7347 78.2458 45.814 77.4118 45.851 77.1123C45.888 76.8128 46.0733 76.6395 46.3354 76.6592C46.5789 76.6774 46.7504 76.8877 46.7504 77.1123Z" fill="#080808"/>
</svg>
