<svg width="18" height="18" viewBox="0 0 18 18" fill="none" xmlns="http://www.w3.org/2000/svg">
<path d="M9 0C4.02991 0 0 4.02991 0 9C0 13.9701 4.02991 18 9 18C13.9701 18 18 13.9701 18 9C18 4.02991 13.9701 0 9 0ZM13.3252 6.78415C13.3312 6.87857 13.3312 6.97701 13.3312 7.07344C13.3312 10.0225 11.0853 13.4196 6.98103 13.4196C5.7154 13.4196 4.54219 13.052 3.55379 12.4192C3.7346 12.4393 3.90737 12.4473 4.09219 12.4473C5.13683 12.4473 6.0971 12.0938 6.8625 11.4951C5.88214 11.475 5.05848 10.8321 4.77723 9.94821C5.12076 9.99844 5.43013 9.99844 5.78371 9.90804C5.27891 9.80548 4.8252 9.53133 4.49963 9.13215C4.17407 8.73298 3.99674 8.23341 3.99777 7.7183V7.69018C4.29308 7.85692 4.64062 7.95937 5.00424 7.97344C4.69857 7.76972 4.44788 7.49373 4.27442 7.16993C4.10096 6.84613 4.01007 6.48452 4.00982 6.11719C4.00982 5.70134 4.1183 5.32165 4.31317 4.99219C4.87347 5.68193 5.57263 6.24604 6.36522 6.64788C7.15781 7.04971 8.02609 7.28026 8.91362 7.32455C8.59821 5.80781 9.73125 4.58036 11.0933 4.58036C11.7362 4.58036 12.3147 4.84955 12.7225 5.28348C13.2268 5.18906 13.7089 5.00022 14.1388 4.7471C13.9721 5.26339 13.6225 5.69933 13.1585 5.97455C13.6085 5.92634 14.0424 5.80179 14.4442 5.62701C14.1408 6.07299 13.7612 6.46875 13.3252 6.78415Z" fill="black"/>
</svg>
