<svg width="18" height="18" viewBox="0 0 18 18" fill="none" xmlns="http://www.w3.org/2000/svg">
<path d="M11.8125 9C11.8125 9.74592 11.5162 10.4613 10.9887 10.9887C10.4613 11.5162 9.74592 11.8125 9 11.8125C8.25408 11.8125 7.53871 11.5162 7.01126 10.9887C6.48382 10.4613 6.1875 9.74592 6.1875 9C6.1875 8.83969 6.20437 8.68312 6.23344 8.53125H5.25V12.2784C5.25 12.5391 5.46094 12.75 5.72156 12.75H12.2794C12.4043 12.7498 12.524 12.7 12.6122 12.6116C12.7004 12.5231 12.75 12.4033 12.75 12.2784V8.53125H11.7666C11.7956 8.68312 11.8125 8.83969 11.8125 9ZM9 10.875C9.24629 10.8749 9.49016 10.8264 9.71768 10.7321C9.94519 10.6378 10.1519 10.4996 10.326 10.3254C10.5001 10.1512 10.6382 9.94437 10.7324 9.71681C10.8266 9.48924 10.8751 9.24535 10.875 8.99906C10.8749 8.75277 10.8264 8.50891 10.7321 8.28139C10.6378 8.05387 10.4996 7.84715 10.3254 7.67304C10.1512 7.49893 9.94437 7.36084 9.71681 7.26664C9.48924 7.17245 9.24535 7.124 8.99906 7.12406C8.50166 7.12419 8.02467 7.3219 7.67304 7.67371C7.32141 8.02551 7.12394 8.50259 7.12406 9C7.12419 9.49741 7.3219 9.97439 7.67371 10.326C8.02551 10.6777 8.50259 10.8751 9 10.875ZM11.25 7.03125H12.3741C12.4487 7.03125 12.5204 7.00165 12.5733 6.94893C12.6262 6.89621 12.656 6.82468 12.6562 6.75V5.62594C12.6562 5.5511 12.6265 5.47932 12.5736 5.4264C12.5207 5.37348 12.4489 5.34375 12.3741 5.34375H11.25C11.1752 5.34375 11.1034 5.37348 11.0505 5.4264C10.9975 5.47932 10.9678 5.5511 10.9678 5.62594V6.75C10.9688 6.90469 11.0953 7.03125 11.25 7.03125ZM9 0C6.61305 0 4.32387 0.948211 2.63604 2.63604C0.948211 4.32387 0 6.61305 0 9C0 11.3869 0.948211 13.6761 2.63604 15.364C4.32387 17.0518 6.61305 18 9 18C10.1819 18 11.3522 17.7672 12.4442 17.3149C13.5361 16.8626 14.5282 16.1997 15.364 15.364C16.1997 14.5282 16.8626 13.5361 17.3149 12.4442C17.7672 11.3522 18 10.1819 18 9C18 7.8181 17.7672 6.64778 17.3149 5.55585C16.8626 4.46392 16.1997 3.47177 15.364 2.63604C14.5282 1.80031 13.5361 1.13738 12.4442 0.685084C11.3522 0.232792 10.1819 0 9 0ZM13.6875 12.6459C13.6875 13.2187 13.2187 13.6875 12.6459 13.6875H5.35406C4.78125 13.6875 4.3125 13.2187 4.3125 12.6459V5.35406C4.3125 4.78125 4.78125 4.3125 5.35406 4.3125H12.6459C13.2187 4.3125 13.6875 4.78125 13.6875 5.35406V12.6459Z" fill="black"/>
</svg>
