<svg width="104" height="152" viewBox="0 0 104 152" fill="none" xmlns="http://www.w3.org/2000/svg">
<ellipse cx="39.52" cy="144.034" rx="39.52" ry="7.96646" fill="#D9D9D9" fill-opacity="0.9"/>
<path d="M76.0972 87.3572C75.1607 93.5698 75.8637 97.2192 76.5934 103.471C77.1251 108.026 78.8755 112.564 78.8755 117.152C78.8755 122.017 78.8755 123.841 76.5934 129.415C74.5433 134.422 72.6865 136.824 68.6553 140.36C64.2922 144.187 60.5394 145.474 55.094 147.341L55.0614 147.352C50.9474 148.763 47.5312 149.196 44.1466 149.278C40.2177 149.372 36.3314 148.911 31.4457 147.656C23.3282 145.572 18.2739 143.077 11.9976 137.421C9.57585 135.238 8.09273 133.194 6.73859 131.137C5.26307 128.896 3.98233 126.603 2.86882 123.131C1.16091 117.807 0.785055 114.72 0.189711 109.247C-0.388291 103.934 0.483401 98.2272 1.08272 93.4378C2.08332 85.4416 4.76747 80.3356 7.8301 73.9799C10.0489 69.3755 11.8167 67.0755 14.6426 62.8322C17.1274 59.1012 18.6092 57.0679 21.3248 53.5086C26.1197 47.224 34.4225 38.1045 34.4225 38.1045L74.5096 42.3609L87.8058 67.494C87.8058 67.494 82.2845 71.5601 79.967 75.196C77.2996 79.3811 76.4028 85.3302 76.0973 87.3571L76.0972 87.3572Z" fill="#9B61B5"/>
<path d="M57.3485 29.9696C53.5527 29.0978 51.0416 28.5583 47.6733 28.4759C45.8106 28.4303 40.9555 28.6309 40.9555 28.6309C40.9555 28.6309 36.5494 29.013 34.0253 29.9868C31.8072 30.8425 30.5593 31.4514 28.5378 32.8916C26.5164 34.3318 25.9618 34.9551 24.4298 36.8034C23.1332 38.3678 22.3175 39.3729 21.3247 41.1996C20.3318 43.0262 19.8814 44.0336 19.344 46.0083C18.4856 49.1622 19.3022 54.3903 19.3022 54.3903C19.3022 54.3903 24.2328 53.3516 27.3775 52.1937C29.9928 51.2308 31.145 50.8593 33.7533 49.4271C35.7935 48.3067 37.0155 47.4283 38.5767 45.9209C40.7779 43.7954 43.1383 42.2381 43.1383 42.2381C43.1383 42.2381 41.2902 46.4587 40.904 50.7545C40.6494 53.5858 41.0011 56.0203 41.5657 58.8044C42.0279 61.084 42.9559 63.3394 42.9559 63.3394C42.9559 63.3394 47.0241 62.7314 49.0087 62.1233C50.9932 61.5152 52.5808 60.9072 54.6645 59.6911C56.7483 58.4749 57.6413 57.4184 58.4351 56.7521C59.2289 56.0859 61.5116 53.6926 61.5116 53.6926C61.5116 53.6926 60.4196 55.84 59.8242 58.779C59.2289 61.7179 59.4273 63.4407 59.5266 64.8596C59.6258 66.2784 59.8242 67.7985 60.9157 70.1294C62.0072 72.4603 64.5871 74.9939 64.5871 74.9939C64.5871 74.9939 68.8272 73.2042 71.5328 71.3455C73.2906 70.138 74.2119 69.1756 75.7003 67.4945C77.1887 65.8134 76.9761 65.6703 78.2802 63.3394C79.5843 61.0085 80.2647 58.0696 80.2647 58.0696C80.2647 58.0696 79.0975 64.0401 79.4709 68.1025C79.74 71.0304 80.0043 72.5614 81.0585 75.2979C82.102 78.0068 83.936 80.8718 83.936 80.8718C83.936 80.8718 87.5081 77.3248 89.2942 73.8791C91.0803 70.4334 91.2587 68.6022 91.3779 65.0622C91.4941 61.6151 90.9925 59.083 90.1872 56.2454C89.382 53.4078 88.1808 50.5539 87.012 48.2393C85.8432 45.9247 83.6054 43.0642 81.5027 40.8814C79.4001 38.6987 76.2863 36.0965 76.2863 36.0965C76.2863 36.0965 77.6198 33.2802 78.2413 31.3856C78.7337 29.8845 79.1127 29.0451 79.2685 27.47C79.511 25.0192 79.4416 23.8412 79.0072 21.4182C78.6006 19.1506 77.9903 17.5902 77.1624 15.4734L77.1096 15.3382C76.5807 13.9857 75.4068 12.0394 75.4068 12.0394L73.2588 12.3958C73.2588 12.3958 72.9365 16.8294 72.2022 19.5559C71.5087 22.1307 70.9583 23.5555 69.7148 25.9046C68.3149 28.5492 65.3036 32.1466 65.3036 32.1466C65.3036 32.1466 60.4864 30.6902 57.3485 29.9696Z" fill="#003D1C"/>
<ellipse cx="20.3325" cy="95.0595" rx="3.47289" ry="3.64835" fill="#080808"/>
<ellipse cx="56.0536" cy="102.154" rx="3.47289" ry="3.64835" fill="#080808"/>
<ellipse cx="21.2256" cy="93.9587" rx="0.793804" ry="0.810744" fill="#F8F8F8"/>
<ellipse cx="56.9468" cy="101.053" rx="0.793804" ry="0.810744" fill="#F8F8F8"/>
<path d="M44.9774 110.812C45.4251 109.717 45.656 107.732 45.656 107.345C45.656 106.958 45.3755 106.596 44.9774 106.564C44.9774 106.564 30.2658 105.829 29.8639 105.797C29.4621 105.765 29.0637 106.055 29.0284 106.397C28.9931 106.739 29.0144 108.781 29.347 109.921C29.6796 111.061 30.2294 112.117 30.9629 113.026C31.6964 113.934 32.5982 114.676 33.6133 115.206C34.6283 115.736 35.7352 116.042 36.8666 116.107C37.9979 116.171 39.1299 115.992 40.1933 115.581C41.2568 115.17 42.2295 114.535 43.052 113.715C43.8746 112.895 44.5297 111.908 44.9774 110.812Z" fill="#080808"/>
<path d="M21.984 79.8182C21.2659 79.8729 20.6213 80.0719 19.9173 80.2267C19.4232 80.3354 17.784 80.8395 17.784 80.8395C17.784 80.8395 19.0643 79.6935 19.584 79.2735C20.1337 78.8292 20.7243 78.5623 21.384 78.3202C22.2203 78.0133 23.3818 77.8577 24.2507 78.0479C25.184 78.2521 25.6596 78.4001 26.4507 78.933C27.2417 79.466 27.6507 80.0225 27.9173 80.6353C28.1247 81.1119 28.184 81.5204 28.184 82.4056C28.184 83.3026 27.4507 84.993 27.4507 84.993C27.4507 84.993 27.4507 83.6312 27.184 82.8141C26.9384 82.0616 26.784 81.6566 26.184 81.0438C25.5912 80.4383 25.0584 80.2521 24.2507 80.0225C23.4445 79.7933 22.8185 79.7547 21.984 79.8182Z" fill="#080808"/>
<path d="M60.256 86.8289C59.5379 86.8836 58.8933 87.0827 58.1894 87.2375C57.6952 87.3462 56.056 87.8503 56.056 87.8503C56.056 87.8503 57.3363 86.7043 57.856 86.2842C58.4057 85.8399 58.9963 85.5731 59.656 85.331C60.4923 85.0241 61.6538 84.8685 62.5227 85.0586C63.456 85.2629 63.9316 85.4108 64.7227 85.9438C65.5138 86.4767 65.9227 87.0332 66.1894 87.646C66.3968 88.1226 66.456 88.5312 66.456 89.4163C66.456 90.3134 65.7227 92.0037 65.7227 92.0037C65.7227 92.0037 65.7227 90.642 65.456 89.8249C65.2104 89.0723 65.056 88.6674 64.456 88.0546C63.8632 87.4491 63.3304 87.2628 62.5227 87.0332C61.7166 86.8041 61.0905 86.7654 60.256 86.8289Z" fill="#080808"/>
<path d="M33.28 113.466C32.7023 113.078 32.4126 112.855 31.928 112.351C31.6255 112.036 31.2 111.53 31.2 111.53C31.2 111.53 31.7008 110.908 31.928 110.705C32.4938 110.199 32.7964 109.886 33.436 109.483C34.1554 109.03 34.5992 108.817 35.412 108.58C36.14 108.368 36.7637 108.303 37.492 108.368C38.4204 108.45 38.792 108.58 39.624 109.058C40.3676 109.485 40.7597 109.8 41.34 110.439C41.9377 111.097 42.7277 112.351 42.7277 112.351C42.7277 112.351 42.2466 112.959 41.756 113.307C41.1916 113.707 40.6254 114.054 39.988 114.316C39.21 114.636 38.6428 114.797 37.804 114.794C36.9854 114.791 36.4113 114.743 35.62 114.528C34.6972 114.279 34.0774 114.002 33.28 113.466Z" fill="#EC9595"/>
</svg>
